<svg width="171" height="40" viewBox="0 0 171 40" fill="none" xmlns="http://www.w3.org/2000/svg">
<rect x="0.0476074" width="41" height="40" rx="20" fill="#C3DCE3"/>
<path d="M14.2786 26L19.2706 14.8H21.8306L26.8386 26H24.1186L20.0226 16.112H21.0466L16.9346 26H14.2786ZM16.7746 23.6L17.4626 21.632H23.2226L23.9266 23.6H16.7746Z" fill="#2B788B"/>
<path d="M50.9676 26L56.0076 14.8H58.0556L63.1116 26H60.9356L56.5996 15.904H57.4316L53.1116 26H50.9676ZM53.2876 23.408L53.8476 21.776H59.8956L60.4556 23.408H53.2876ZM63.704 26V14.128H65.704V26H63.704ZM71.705 26.112C70.7556 26.112 69.9236 25.9253 69.209 25.552C68.505 25.168 67.9556 24.6453 67.561 23.984C67.177 23.3227 66.985 22.5707 66.985 21.728C66.985 20.8747 67.1716 20.1227 67.545 19.472C67.929 18.8107 68.4516 18.2933 69.113 17.92C69.785 17.5467 70.5476 17.36 71.401 17.36C72.233 17.36 72.9743 17.5413 73.625 17.904C74.2756 18.2667 74.7876 18.7787 75.161 19.44C75.5343 20.1013 75.721 20.88 75.721 21.776C75.721 21.8613 75.7156 21.9573 75.705 22.064C75.705 22.1707 75.6996 22.272 75.689 22.368H68.569V21.04H74.633L73.849 21.456C73.8596 20.9653 73.7583 20.5333 73.545 20.16C73.3316 19.7867 73.0383 19.4933 72.665 19.28C72.3023 19.0667 71.881 18.96 71.401 18.96C70.9103 18.96 70.4783 19.0667 70.105 19.28C69.7423 19.4933 69.4543 19.792 69.241 20.176C69.0383 20.5493 68.937 20.992 68.937 21.504V21.824C68.937 22.336 69.0543 22.7893 69.289 23.184C69.5236 23.5787 69.8543 23.8827 70.281 24.096C70.7076 24.3093 71.1983 24.416 71.753 24.416C72.233 24.416 72.665 24.3413 73.049 24.192C73.433 24.0427 73.7743 23.808 74.073 23.488L75.145 24.72C74.761 25.168 74.2756 25.5147 73.689 25.76C73.113 25.9947 72.4516 26.112 71.705 26.112ZM75.5997 26L79.3597 21.104L79.3277 22.176L75.7437 17.456H77.9677L80.4797 20.816H79.6317L82.1597 17.456H84.3197L80.7037 22.176L80.7197 21.104L84.4637 26H82.2077L79.5677 22.432L80.3997 22.544L77.8077 26H75.5997Z" fill="#757575"/>
<path d="M120.056 26.192C119.16 26.192 118.301 26.0747 117.48 25.84C116.658 25.5947 115.997 25.28 115.496 24.896L116.376 22.944C116.856 23.2853 117.421 23.568 118.072 23.792C118.733 24.0053 119.4 24.112 120.072 24.112C120.584 24.112 120.994 24.064 121.304 23.968C121.624 23.8613 121.858 23.7173 122.008 23.536C122.157 23.3547 122.232 23.1467 122.232 22.912C122.232 22.6133 122.114 22.3787 121.88 22.208C121.645 22.0267 121.336 21.8827 120.952 21.776C120.568 21.6587 120.141 21.552 119.672 21.456C119.213 21.3493 118.749 21.2213 118.28 21.072C117.821 20.9227 117.4 20.7307 117.016 20.496C116.632 20.2613 116.317 19.952 116.072 19.568C115.837 19.184 115.72 18.6933 115.72 18.096C115.72 17.456 115.89 16.8747 116.232 16.352C116.584 15.8187 117.106 15.3973 117.8 15.088C118.504 14.768 119.384 14.608 120.44 14.608C121.144 14.608 121.837 14.6933 122.52 14.864C123.202 15.024 123.805 15.2693 124.328 15.6L123.528 17.568C123.005 17.2693 122.482 17.0507 121.96 16.912C121.437 16.7627 120.925 16.688 120.424 16.688C119.922 16.688 119.512 16.7467 119.192 16.864C118.872 16.9813 118.642 17.136 118.504 17.328C118.365 17.5093 118.296 17.7227 118.296 17.968C118.296 18.256 118.413 18.4907 118.648 18.672C118.882 18.8427 119.192 18.9813 119.576 19.088C119.96 19.1947 120.381 19.3013 120.84 19.408C121.309 19.5147 121.773 19.6373 122.232 19.776C122.701 19.9147 123.128 20.1013 123.512 20.336C123.896 20.5707 124.205 20.88 124.44 21.264C124.685 21.648 124.808 22.1333 124.808 22.72C124.808 23.3493 124.632 23.9253 124.28 24.448C123.928 24.9707 123.4 25.392 122.696 25.712C122.002 26.032 121.122 26.192 120.056 26.192ZM125.763 26V17.392H128.259V26H125.763ZM127.011 16.192C126.552 16.192 126.179 16.0587 125.891 15.792C125.603 15.5253 125.459 15.1947 125.459 14.8C125.459 14.4053 125.603 14.0747 125.891 13.808C126.179 13.5413 126.552 13.408 127.011 13.408C127.469 13.408 127.843 13.536 128.131 13.792C128.419 14.0373 128.563 14.3573 128.563 14.752C128.563 15.168 128.419 15.5147 128.131 15.792C127.853 16.0587 127.48 16.192 127.011 16.192ZM133.983 29.232C133.173 29.232 132.389 29.1307 131.631 28.928C130.885 28.736 130.261 28.4427 129.759 28.048L130.751 26.256C131.114 26.5547 131.573 26.7893 132.127 26.96C132.693 27.1413 133.247 27.232 133.791 27.232C134.677 27.232 135.317 27.0347 135.711 26.64C136.117 26.2453 136.319 25.6587 136.319 24.88V23.584L136.479 21.424L136.447 19.248V17.392H138.815V24.56C138.815 26.16 138.399 27.3387 137.567 28.096C136.735 28.8533 135.541 29.232 133.983 29.232ZM133.599 25.584C132.799 25.584 132.074 25.4133 131.423 25.072C130.783 24.72 130.266 24.2347 129.871 23.616C129.487 22.9867 129.295 22.256 129.295 21.424C129.295 20.5813 129.487 19.8507 129.871 19.232C130.266 18.6027 130.783 18.1173 131.423 17.776C132.074 17.4347 132.799 17.264 133.599 17.264C134.325 17.264 134.965 17.4133 135.519 17.712C136.074 18 136.506 18.4533 136.815 19.072C137.125 19.68 137.279 20.464 137.279 21.424C137.279 22.3733 137.125 23.1573 136.815 23.776C136.506 24.384 136.074 24.8373 135.519 25.136C134.965 25.4347 134.325 25.584 133.599 25.584ZM134.095 23.536C134.533 23.536 134.922 23.4507 135.263 23.28C135.605 23.0987 135.871 22.848 136.063 22.528C136.255 22.208 136.351 21.84 136.351 21.424C136.351 20.9973 136.255 20.6293 136.063 20.32C135.871 20 135.605 19.7547 135.263 19.584C134.922 19.4027 134.533 19.312 134.095 19.312C133.658 19.312 133.269 19.4027 132.927 19.584C132.586 19.7547 132.314 20 132.111 20.32C131.919 20.6293 131.823 20.9973 131.823 21.424C131.823 21.84 131.919 22.208 132.111 22.528C132.314 22.848 132.586 23.0987 132.927 23.28C133.269 23.4507 133.658 23.536 134.095 23.536ZM145.73 17.264C146.413 17.264 147.021 17.4027 147.554 17.68C148.098 17.9467 148.525 18.3627 148.834 18.928C149.144 19.4827 149.298 20.1973 149.298 21.072V26H146.802V21.456C146.802 20.7627 146.648 20.2507 146.338 19.92C146.04 19.5893 145.613 19.424 145.058 19.424C144.664 19.424 144.306 19.5093 143.986 19.68C143.677 19.84 143.432 20.0907 143.25 20.432C143.08 20.7733 142.994 21.2107 142.994 21.744V26H140.498V17.392H142.882V19.776L142.434 19.056C142.744 18.48 143.186 18.0373 143.762 17.728C144.338 17.4187 144.994 17.264 145.73 17.264ZM154.988 26V14.8H157.58V26H154.988ZM164.654 17.264C165.337 17.264 165.945 17.4027 166.478 17.68C167.022 17.9467 167.449 18.3627 167.758 18.928C168.067 19.4827 168.222 20.1973 168.222 21.072V26H165.726V21.456C165.726 20.7627 165.571 20.2507 165.262 19.92C164.963 19.5893 164.537 19.424 163.982 19.424C163.587 19.424 163.23 19.5093 162.91 19.68C162.601 19.84 162.355 20.0907 162.174 20.432C162.003 20.7733 161.918 21.2107 161.918 21.744V26H159.422V17.392H161.806V19.776L161.358 19.056C161.667 18.48 162.11 18.0373 162.686 17.728C163.262 17.4187 163.918 17.264 164.654 17.264Z" fill="black"/>
</svg>
